HIERARCHY
ROOT Pelvis
{
	OFFSET 0.000000 0.000000 0.000000
	CHANNELS 6 Xposition Yposition Zposition Xrotation Yrotation Zrotation
	JOINT LeftUpLeg_virtual
	{
		OFFSET 0.000000 0.000000 0.000000
		CHANNELS 3 Xrotation Yrotation Zrotation
		JOINT LeftUpLeg
		{
			OFFSET 8.479700 -4.795502 -0.379100
			CHANNELS 3 Xrotation Yrotation Zrotation
			JOINT LeftLeg
			{
				OFFSET 0.024144 -32.555107 0.112900
				CHANNELS 3 Xrotation Yrotation Zrotation
				JOINT LeftFoot
				{
					OFFSET -0.024144 -32.638630 -3.012600
					CHANNELS 3 Xrotation Yrotation Zrotation
					JOINT LeftToeBase
					{
						OFFSET 0.970200 -13.225400 11.864200
						CHANNELS 3 Xrotation Yrotation Zrotation
						End Site
						{
							OFFSET 0 0 0
						}
					}
				}
			}
		}
	}
	JOINT RightUpLeg_virtual
	{
		OFFSET 0.000000 0.000000 0.000000
		CHANNELS 3 Xrotation Yrotation Zrotation
		JOINT RightUpLeg
		{
			OFFSET -8.479700 -4.795502 -0.379100
			CHANNELS 3 Xrotation Yrotation Zrotation
			JOINT RightLeg
			{
				OFFSET -0.023144 -32.555092 0.112900
				CHANNELS 3 Xrotation Yrotation Zrotation
				JOINT RightFoot
				{
					OFFSET 0.023144 -32.638641 -3.012700
					CHANNELS 3 Xrotation Yrotation Zrotation
					JOINT RightToeBase
					{
						OFFSET -0.970200 -13.225400 11.864200
						CHANNELS 3 Xrotation Yrotation Zrotation
						End Site
						{
							OFFSET 0 0 0
						}
					}
				}
			}
		}
	}
	JOINT Hips_virtual
	{
		OFFSET 0.000000 0.000000 0.000000
		CHANNELS 3 Xrotation Yrotation Zrotation
		JOINT Hips
		{
			OFFSET -0.000000 -0.000000 -0.000000
			CHANNELS 3 Xrotation Yrotation Zrotation
			JOINT Spine
			{
				OFFSET 0.000000 7.722000 1.166200
				CHANNELS 3 Xrotation Yrotation Zrotation
				JOINT Spine1
				{
					OFFSET 0.000000 12.024101 0.248800
					CHANNELS 3 Xrotation Yrotation Zrotation
					JOINT Spine2
					{
						OFFSET 0.000000 11.502998 -0.491200
						CHANNELS 3 Xrotation Yrotation Zrotation
						JOINT Neck_virtual
						{
							OFFSET 0.000000 0.000000 0.000000
							CHANNELS 3 Xrotation Yrotation Zrotation
							JOINT Neck
							{
								OFFSET 0.000000 18.430702 -3.123100
								CHANNELS 3 Xrotation Yrotation Zrotation
								JOINT Head
								{
									OFFSET 0.000000 9.051102 1.034000
									CHANNELS 3 Xrotation Yrotation Zrotation
									End Site
									{
										OFFSET 0 0 0
									}
								}
							}
						}
						JOINT LeftShoulder_virtual
						{
							OFFSET 0.000000 0.000000 0.000000
							CHANNELS 3 Xrotation Yrotation Zrotation
							JOINT LeftShoulder
							{
								OFFSET 6.197800 13.665199 -4.064700
								CHANNELS 3 Xrotation Yrotation Zrotation
								JOINT LeftArm
								{
									OFFSET 7.778100 -0.187103 -1.709300
									CHANNELS 3 Xrotation Yrotation Zrotation
									JOINT LeftForeArm
									{
										OFFSET 22.049376 0.000000 0.000000
										CHANNELS 3 Xrotation Yrotation Zrotation
										JOINT LeftHand
										{
											OFFSET 23.009392 0.000000 0.000000
											CHANNELS 3 Xrotation Yrotation Zrotation
											End Site
											{
												OFFSET 0 0 0
											}
										}
									}
								}
							}
						}
						JOINT RightShoulder_virtual
						{
							OFFSET 0.000000 0.000000 0.000000
							CHANNELS 3 Xrotation Yrotation Zrotation
							JOINT RightShoulder
							{
								OFFSET -6.197800 13.665199 -4.064700
								CHANNELS 3 Xrotation Yrotation Zrotation
								JOINT RightArm
								{
									OFFSET -7.778100 -0.187103 -1.709300
									CHANNELS 3 Xrotation Yrotation Zrotation
									JOINT RightForeArm
									{
										OFFSET -22.049376 0.000000 0.000000
										CHANNELS 3 Xrotation Yrotation Zrotation
										JOINT RightHand
										{
											OFFSET -23.009392 0.000000 0.000000
											CHANNELS 3 Xrotation Yrotation Zrotation
											End Site
											{
												OFFSET 0 0 0
											}
										}
									}
								}
							}
						}
					}
				}
			}
		}
	}
}
MOTION
Frames: 6
Frame Time: 0.03333333
0.096730 68.535431 0.041260 0.000000 0.000000 0.000000 11.811435 2.970685 -1.331810 -55.985777 1.520729 4.899999 76.346461 7.598748 -0.649279 -31.169616 5.520676 -5.262327 0.000000 0.000000 0.000000 11.811435 2.970685 -1.331810 -53.662617 -14.549041 -6.387762 75.217158 -8.082544 -4.584044 -34.189639 -10.108914 4.287613 0.000000 0.000000 0.000000 11.811435 2.970685 -1.331810 0.000000 0.000000 0.000000 9.874446 1.473831 1.195774 7.603464 0.776396 0.053754 0.000000 0.000000 0.000000 7.594515 0.865696 0.034386 -11.221133 -1.914916 7.441273 0.000000 0.000000 0.000000 7.594515 0.865696 0.034386 3.557357 -26.212555 4.772374 -62.448713 -21.862973 -66.788219 -179.999909 -70.665649 -179.999909 0.000000 0.000000 0.000000 7.594515 0.865696 0.034386 1.196395 13.130263 10.955149 -58.753226 43.561205 51.473764 -179.999732 73.676035 179.999745 0.000000 0.000000 0.000000 
0.094519 68.532951 0.039173 0.000000 0.000000 0.000000 11.799359 2.960742 -1.325437 -55.975320 1.520921 4.902187 76.352246 7.602001 -0.651957 -31.173765 5.523099 -5.266970 0.000000 0.000000 0.000000 11.799359 2.960742 -1.325437 -53.658185 -14.549409 -6.380262 75.223906 -8.082110 -4.596544 -34.190633 -10.112112 4.286280 0.000000 0.000000 0.000000 11.799359 2.960742 -1.325437 0.000000 0.000000 0.000000 9.878135 1.468215 1.202973 7.606520 0.771335 0.057330 0.000000 0.000000 0.000000 7.597684 0.860255 0.038071 -11.217811 -1.906715 7.417775 0.000000 0.000000 0.000000 7.597684 0.860255 0.038071 3.557359 -26.212552 4.772374 -62.440258 -21.827234 -66.761711 -180.000005 -70.691276 179.999978 0.000000 0.000000 0.000000 7.597684 0.860255 0.038071 1.196366 13.156127 10.917911 -58.738787 43.556178 51.453202 -179.999950 73.727316 179.999950 0.000000 0.000000 0.000000 
0.092476 68.530304 0.037163 0.000000 0.000000 0.000000 11.789957 2.953214 -1.320334 -55.968442 1.521623 4.902638 76.358052 7.605106 -0.652237 -31.177484 5.527300 -5.271057 0.000000 0.000000 0.000000 11.789957 2.953214 -1.320334 -53.656812 -14.554532 -6.376851 75.230852 -8.081083 -4.608538 -34.193023 -10.111923 4.285068 0.000000 0.000000 0.000000 11.789957 2.953214 -1.320334 0.000000 0.000000 0.000000 9.881314 1.462389 1.209211 7.609031 0.766257 0.060673 0.000000 0.000000 0.000000 7.600273 0.854942 0.041498 -11.217680 -1.900473 7.402072 0.000000 0.000000 0.000000 7.600273 0.854942 0.041498 3.557358 -26.212548 4.772372 -62.433502 -21.799063 -66.740299 179.999991 -70.696993 -180.000005 0.000000 0.000000 0.000000 7.600273 0.854942 0.041498 1.196223 13.178826 10.886485 -58.723337 43.560351 51.421048 -179.999841 73.755313 179.999841 0.000000 0.000000 0.000000 
0.090757 68.527618 0.035431 0.000000 0.000000 0.000000 11.783835 2.948056 -1.316321 -55.965747 1.523016 4.901109 76.363817 7.608024 -0.649620 -31.180363 5.532136 -5.274989 0.000000 0.000000 0.000000 11.783835 2.948056 -1.316321 -53.658680 -14.561892 -6.378068 75.238277 -8.078649 -4.617599 -34.195923 -10.108588 4.283744 0.000000 0.000000 0.000000 11.783835 2.948056 -1.316321 -0.000001 0.000000 0.000000 9.884112 1.456040 1.213653 7.610894 0.761038 0.063448 0.000000 0.000000 0.000000 7.602198 0.849653 0.044323 -11.220967 -1.896256 7.395013 0.000000 0.000000 0.000000 7.602198 0.849653 0.044323 3.557362 -26.212552 4.772373 -62.430484 -21.781198 -66.726386 -179.999868 -70.681584 -179.999868 0.000000 0.000000 0.000000 7.602198 0.849653 0.044323 1.195820 13.196527 10.865738 -58.712702 43.570760 51.388564 -179.999841 73.756119 179.999841 0.000000 0.000000 0.000000 
0.089405 68.525032 0.034073 0.000000 0.000000 0.000000 11.780023 2.944381 -1.312997 -55.965067 1.525713 4.898012 76.368509 7.610545 -0.644232 -31.183437 5.537183 -5.278737 0.000000 0.000000 0.000000 11.780023 2.944381 -1.312997 -53.662344 -14.569033 -6.382902 75.245742 -8.074985 -4.622647 -34.199707 -10.102850 4.282038 0.000000 0.000000 0.000000 11.780023 2.944381 -1.312997 0.000000 0.000000 0.000000 9.886361 1.449324 1.215998 7.612138 0.755871 0.065494 0.000000 0.000000 0.000000 7.603504 0.844574 0.046390 -11.226469 -1.894190 7.395392 0.000000 0.000000 0.000000 7.603504 0.844574 0.046390 3.557358 -26.212552 4.772373 -62.433769 -21.772903 -66.719549 -179.999950 -70.656203 -179.999950 0.000000 0.000000 0.000000 7.603504 0.844574 0.046390 1.195111 13.207561 10.859376 -58.714061 43.584759 51.369279 179.999882 73.740225 -179.999896 0.000000 0.000000 0.000000 
0.088224 68.522537 0.033081 0.000000 0.000000 0.000000 11.776191 2.940889 -1.309977 -55.964207 1.530067 4.894619 76.373167 7.611954 -0.636715 -31.186668 5.542846 -5.282237 0.000000 0.000000 0.000000 11.776191 2.940889 -1.309977 -53.665322 -14.574533 -6.389172 75.253665 -8.070341 -4.624272 -34.203757 -10.095744 4.279914 0.000000 0.000000 0.000000 11.776191 2.940889 -1.309977 0.000001 0.000000 0.000000 9.887717 1.442834 1.216742 7.612831 0.751159 0.066891 0.000000 0.000000 0.000000 7.604222 0.840024 0.047795 -11.231274 -1.894201 7.400290 0.000000 0.000000 0.000000 7.604222 0.840024 0.047795 3.557357 -26.212552 4.772374 -62.444943 -21.769423 -66.717008 -179.999896 -70.639401 -179.999923 0.000000 0.000000 0.000000 7.604222 0.840024 0.047795 1.194084 13.211505 10.867398 -58.732161 43.600226 51.374357 -179.999950 73.729447 179.999950 0.000000 0.000000 0.000000 
